# xmcd
#
# Track frame offsets:
#   150
#   18124
#   34883
#   53933
#   78647
#   96841
#   116825
#   134327
#   164920
#   176539
#   199509
#
# Disc length: 3051 seconds
#
# Revision: 0
# Processed by: cddbd v1.5.2PL0 Copyright (c) Steve Scherf et al.
# Submitted via: uFREEDB ActiveX Control 1.5
#
DISCID=960be90b
DTITLE=JANIS JOPLIN - BOX OF PEARLS CD 03
DYEAR=1967
DGENRE=Blues
TTITLE0=TRY (JUST A LITTLE BIT HARDER)
TTITLE1=MAYBE
TTITLE2=ONE GOOD MAN
TTITLE3=AS GOOD AS YOU'VE BEEN TO THIS
TTITLE4=TO LOVE SOMEBODY
TTITLE5=KOZMIC BLUES
TTITLE6=LITTLE GIRL BLUE
TTITLE7=WORK ME LORD
TTITLE8=DEAR LANDLORD
TTITLE9=SUMMERTIME
TTITLE10=PIECE OF MY HEART
EXTD=
EXTT0=
EXTT1=
EXTT2=
EXTT3=
EXTT4=
EXTT5=
EXTT6=
EXTT7=
EXTT8=
EXTT9=
EXTT10=
PLAYORDER=
